<svg width="820" height="170" viewBox="0 0 820 170" fill="none" xmlns="http://www.w3.org/2000/svg" role="img" aria-label="SightSignal powered by HazLenz AI">
  <defs>
    <linearGradient id="blue" x1="58" y1="30" x2="124" y2="96" gradientUnits="userSpaceOnUse">
      <stop stop-color="#8FD3FF"/>
      <stop offset="0.45" stop-color="#5DB7FF"/>
      <stop offset="1" stop-color="#1D72B8"/>
    </linearGradient>
    <clipPath id="headerIrisClip">
      <circle cx="91" cy="63" r="33"/>
    </clipPath>
      <linearGradient id="poweredMetal" x1="0" y1="0" x2="430" y2="0" gradientUnits="userSpaceOnUse">
      <stop offset="0" stop-color="#6B7280"/>
      <stop offset="0.34" stop-color="#9CA3AF"/>
      <stop offset="0.5" stop-color="#D1D5DB"/>
      <stop offset="0.64" stop-color="#9CA3AF"/>
      <stop offset="1" stop-color="#4B5563"/>
    </linearGradient>
  </defs>

  <g transform="translate(8 8) scale(1.16)">
    <path d="M8 63C34 21 74 5 112 15C137 22 157 40 169 63C157 86 137 104 112 111C74 121 34 105 8 63Z" fill="#050B14" stroke="#FFFFFF" stroke-width="3.2" stroke-linejoin="round"/>
    <path d="M22 63C46 32 79 22 108 29C128 34 145 47 156 63C145 79 128 92 108 97C79 104 46 94 22 63Z" fill="#F8FAFC"/>

    <circle cx="91" cy="63" r="40" fill="#0B1320"/>
    <circle cx="91" cy="63" r="33" fill="url(#blue)"/>

    <g clip-path="url(#headerIrisClip)">
      <circle cx="91" cy="63" r="33" fill="#1D72B8"/>

      <circle cx="91" cy="63" r="27" fill="none" stroke="#DFF3FF" stroke-width="1.35" opacity="0.72"/>
      <circle cx="91" cy="63" r="19" fill="none" stroke="#DFF3FF" stroke-width="1.15" opacity="0.56"/>
      <circle cx="91" cy="63" r="11" fill="none" stroke="#DFF3FF" stroke-width="1" opacity="0.44"/>

      <path d="M91 30V96" stroke="#06111F" stroke-width="3.4" opacity="0.88"/>
      <path d="M58 63H124" stroke="#06111F" stroke-width="3.4" opacity="0.88"/>

      <path d="M91 63L119 41C125 51 126 63 122 73Z" fill="#F97316" opacity="0.28"/>
      <path d="M91 63L120 40" stroke="#F97316" stroke-width="4.1" stroke-linecap="round"/>
      <circle cx="116" cy="43" r="3.2" fill="#FDBA74"/>

      <circle cx="91" cy="63" r="6.7" fill="#F8FAFC"/>
      <circle cx="91" cy="63" r="3.1" fill="#06111F" opacity="0.72"/>
    </g>
    <circle cx="91" cy="63" r="33" fill="none" stroke="#5DB7FF" stroke-width="2.4" opacity="0.95"/>
  </g>

  <g transform="translate(225 36)">
    <text x="0" y="56" font-family="Inter, ui-sans-serif, system-ui, -apple-system, BlinkMacSystemFont, 'Segoe UI', sans-serif" font-size="72" font-weight="900" letter-spacing="-3.9" fill="#FFFFFF">Sight</text>
    <text x="158" y="56" font-family="Inter, ui-sans-serif, system-ui, -apple-system, BlinkMacSystemFont, 'Segoe UI', sans-serif" font-size="72" font-weight="900" letter-spacing="-3.9" fill="#5DB7FF">Signal</text>
    <text x="0" y="94" font-family="Inter, ui-sans-serif, system-ui, -apple-system, BlinkMacSystemFont, 'Segoe UI', sans-serif" font-size="25.5" font-weight="900" letter-spacing="0.9" fill="#B8C0CC" textLength="360" lengthAdjust="spacing">
      <tspan>POWERED BY</tspan><tspan dx="5">HAZLENZ AI</tspan>
    </text>
  </g>
</svg>
