<svg width="260" height="260" viewBox="0 0 260 260" fill="none" xmlns="http://www.w3.org/2000/svg" role="img" aria-label="GuideGuard radar lens concept">
  <defs>
    <radialGradient id="lensGlow" cx="50%" cy="50%" r="55%">
      <stop offset="0" stop-color="#E0F2FE"/>
      <stop offset="0.28" stop-color="#5DB7FF"/>
      <stop offset="0.62" stop-color="#1D72B8"/>
      <stop offset="1" stop-color="#0B1320"/>
    </radialGradient>
    <linearGradient id="sweep" x1="130" y1="130" x2="218" y2="55" gradientUnits="userSpaceOnUse">
      <stop offset="0" stop-color="#F97316" stop-opacity="0.82"/>
      <stop offset="0.55" stop-color="#FDBA74" stop-opacity="0.38"/>
      <stop offset="1" stop-color="#FDBA74" stop-opacity="0"/>
    </linearGradient>
    <linearGradient id="silver" x1="52" y1="26" x2="208" y2="228" gradientUnits="userSpaceOnUse">
      <stop offset="0" stop-color="#94A3B8"/>
      <stop offset="0.18" stop-color="#FFFFFF"/>
      <stop offset="0.42" stop-color="#CBD5E1"/>
      <stop offset="0.68" stop-color="#F8FAFC"/>
      <stop offset="1" stop-color="#64748B"/>
    </linearGradient>
  </defs>

  <rect width="260" height="260" rx="58" fill="#0B1320"/>
  <circle cx="130" cy="130" r="104" fill="#102A43"/>
  <circle cx="130" cy="130" r="96" fill="url(#silver)" opacity="0.98"/>
  <circle cx="130" cy="130" r="86" fill="#0B1320"/>
  <circle cx="130" cy="130" r="76" fill="url(#lensGlow)"/>

  <circle cx="130" cy="130" r="18" fill="none" stroke="#E0F2FE" stroke-width="2" opacity="0.88"/>
  <circle cx="130" cy="130" r="36" fill="none" stroke="#E0F2FE" stroke-width="1.8" opacity="0.68"/>
  <circle cx="130" cy="130" r="54" fill="none" stroke="#E0F2FE" stroke-width="1.5" opacity="0.44"/>
  <circle cx="130" cy="130" r="70" fill="none" stroke="#E0F2FE" stroke-width="1.1" opacity="0.26"/>

  <path d="M130 60V200" stroke="#E0F2FE" stroke-width="1.2" opacity="0.32"/>
  <path d="M60 130H200" stroke="#E0F2FE" stroke-width="1.2" opacity="0.32"/>
  <path d="M80 80L180 180" stroke="#E0F2FE" stroke-width="1" opacity="0.18"/>
  <path d="M180 80L80 180" stroke="#E0F2FE" stroke-width="1" opacity="0.18"/>

  <path d="M130 130L211 58C222 86 225 114 215 143Z" fill="url(#sweep)"/>
  <path d="M130 130L211 58" stroke="#F97316" stroke-width="5.5" stroke-linecap="round"/>
  <circle cx="211" cy="58" r="7" fill="#F97316"/>

  <circle cx="171" cy="84" r="4.5" fill="#FDBA74"/>
  <circle cx="97" cy="161" r="3.6" fill="#E0F2FE"/>
  <circle cx="152" cy="182" r="3.2" fill="#E0F2FE" opacity="0.85"/>
  <circle cx="112" cy="96" r="2.8" fill="#E0F2FE" opacity="0.75"/>

  <circle cx="130" cy="130" r="9" fill="#F8FAFC"/>
</svg>
